<svg xmlns="http://www.w3.org/2000/svg" height="512pt" version="1.1" viewBox="0 -19 512 512" width="512pt">
<g id="surface1">
<path d="M 198.160156 385.277344 C 210.851562 379.398438 222.789062 372.117188 233.851562 363.507812 C 208.539062 336.246094 190.847656 302.984375 182.269531 266.328125 C 182.207031 266.144531 182.128906 265.972656 182.070312 265.78125 C 181.746094 264.746094 181.542969 263.699219 181.449219 262.660156 C 175.984375 237.371094 175.09375 211.632812 178.828125 186.128906 C 182.765625 159.230469 191.707031 133.5625 205.40625 109.84375 C 216.320312 90.933594 229.921875 73.90625 245.835938 59.226562 C 251.578125 53.929688 260.425781 53.921875 266.175781 59.214844 C 299.746094 90.105469 322.691406 131.363281 331.460938 176.257812 C 346.527344 180.375 361.199219 185.703125 375.355469 192.1875 C 369.835938 135.882812 346.039062 83.195312 306.960938 41.71875 C 291.871094 25.699219 274.757812 11.695312 255.992188 0 C 237.292969 11.644531 220.210938 25.640625 205.121094 41.6875 C 191.609375 56.058594 179.71875 72.074219 169.785156 89.277344 C 147.269531 128.273438 135.390625 172.546875 135.429688 217.316406 C 135.453125 242.234375 139.105469 267.019531 146.289062 290.972656 C 156.691406 325.660156 174.554688 358.050781 198.160156 385.277344 Z M 198.160156 385.277344 " style=" stroke:none;fill-rule:nonzero;fill:rgb(0%,0%,0%);fill-opacity:1;" />
<path d="M 501.332031 378.589844 C 495.644531 359.699219 487.722656 341.398438 477.789062 324.191406 C 455.273438 285.195312 422.871094 252.769531 384.082031 230.421875 C 362.488281 217.976562 339.199219 208.75 314.867188 202.996094 C 279.652344 194.667969 242.695312 193.933594 207.324219 200.753906 C 206.074219 214.6875 206.414062 228.664062 208.34375 242.542969 C 244.660156 234.253906 282.367188 235.59375 318.449219 246.550781 C 318.585938 246.578125 318.726562 246.589844 318.863281 246.621094 C 319.886719 246.847656 320.859375 247.179688 321.777344 247.59375 C 346.417969 255.503906 369.164062 267.601562 389.390625 283.59375 C 410.714844 300.457031 428.472656 321.03125 442.171875 344.757812 C 453.089844 363.664062 461.035156 383.960938 465.789062 405.082031 C 467.503906 412.703125 463.085938 420.367188 455.628906 422.703125 C 434.902344 429.1875 413.347656 432.414062 391.78125 432.414062 C 368.070312 432.414062 344.351562 428.511719 321.710938 420.75 C 310.605469 431.742188 298.65625 441.785156 285.964844 450.800781 C 337.460938 474.140625 394.960938 479.867188 450.390625 466.769531 C 471.804688 461.710938 492.492188 453.890625 512 443.488281 C 511.265625 421.46875 507.6875 399.675781 501.332031 378.589844 Z M 501.332031 378.589844 " style=" stroke:none;fill-rule:nonzero;fill:rgb(0%,0%,0%);fill-opacity:1;" />
<path d="M 306.84375 393.015625 C 331.660156 366.683594 350.769531 335.050781 362.550781 301.015625 C 351.109375 292.960938 338.839844 286.257812 325.855469 280.984375 C 314.785156 316.882812 294.53125 349.113281 266.640625 374.992188 C 266.296875 375.339844 265.941406 375.667969 265.574219 375.972656 C 246.199219 393.714844 224.070312 407.609375 199.777344 417.261719 C 174.511719 427.296875 147.8125 432.386719 120.421875 432.386719 C 98.574219 432.386719 77.023438 429.121094 56.367188 422.675781 C 48.910156 420.351562 44.484375 412.691406 46.191406 405.070312 C 56.15625 360.570312 80.398438 320.09375 114.859375 290.058594 C 110.886719 274.949219 108.160156 259.582031 106.691406 244.082031 C 60.726562 277.011719 27.019531 323.945312 10.644531 378.496094 C 4.320312 399.574219 0.746094 421.402344 0 443.496094 C 19.433594 453.867188 40.09375 461.664062 61.535156 466.707031 C 80.746094 471.226562 100.558594 473.515625 120.421875 473.515625 C 165.445312 473.515625 209.730469 461.667969 248.484375 439.246094 C 270.054688 426.769531 289.6875 411.214844 306.84375 393.015625 Z M 306.84375 393.015625 " style=" stroke:none;fill-rule:nonzero;fill:rgb(0%,0%,0%);fill-opacity:1;" />
</g>
</svg>